<svg width="31" height="30" viewBox="0 0 31 30" fill="none" xmlns="http://www.w3.org/2000/svg">
    <path d="M19.2527 11.3333C21.9081 11.3333 24.0607 9.244 24.0607 6.66667C24.0607 4.08934 21.9081 2 19.2527 2C16.5972 2 14.4446 4.08934 14.4446 6.66667C14.4446 9.244 16.5972 11.3333 19.2527 11.3333Z" stroke="#F67A95" stroke-width="2.5" stroke-miterlimit="10"/>
    <path d="M12.1819 18.6868C14.8373 18.6868 16.9899 16.5975 16.9899 14.0202C16.9899 11.4429 14.8373 9.35352 12.1819 9.35352C9.52643 9.35352 7.37378 11.4429 7.37378 14.0202C7.37378 16.5975 9.52643 18.6868 12.1819 18.6868Z" stroke="#F67A95" stroke-width="2.5" stroke-miterlimit="10"/>
    <path d="M20.3838 11.3333C20.3838 11.3333 24.7689 12.6415 26.3232 15.5757Z" fill="white"/>
    <path d="M20.3838 11.3333C20.3838 11.3333 24.7689 12.6415 26.3232 15.5757" stroke="#F67A95" stroke-width="2.5" stroke-miterlimit="10"/>
    <path d="M12.4646 18.6868C12.4646 18.6868 3.05349 20.2424 2 28.8686" stroke="#F67A95" stroke-width="2.5" stroke-miterlimit="10"/>
    <path d="M16.707 23.4971L21.4987 28.0202L30 18.6868" stroke="#F67A95" stroke-width="2.5" stroke-miterlimit="10"/>
</svg>