<svg width="28" height="28" viewBox="0 0 28 28" fill="none" xmlns="http://www.w3.org/2000/svg">
<path d="M26.7537 1.24521C25.9159 0.445577 24.8023 -0.000579834 23.6442 -0.000579834C22.486 -0.000579834 21.3724 0.445577 20.5346 1.24521L4.64847 17.1325C4.54126 17.2391 4.45231 17.3627 4.38517 17.4981L0.148325 25.9718C0.0175025 26.2348 -0.0273817 26.5323 0.0200137 26.8222C0.0674091 27.1121 0.204687 27.3797 0.412457 27.5874C0.620227 27.795 0.887984 27.9322 1.17791 27.9794C1.46783 28.0266 1.76525 27.9815 2.02817 27.8505L10.503 23.6148C10.6384 23.5482 10.7617 23.4592 10.8675 23.3516L26.7548 7.46424C27.5543 6.62632 28.0003 5.51261 28 4.35448C27.9998 3.19635 27.5535 2.08283 26.7537 1.24521V1.24521ZM9.04743 21.2084L4.53924 23.4631L6.79391 18.9537L19.4079 6.33862L21.6614 8.59329L9.04743 21.2084ZM24.7715 5.48318L23.6447 6.60995L21.3855 4.35644L22.5122 3.22967C22.8159 2.94008 23.2194 2.77855 23.639 2.77855C24.0586 2.77855 24.4621 2.94008 24.7657 3.22967C25.0642 3.52835 25.2323 3.93301 25.2334 4.35525C25.2345 4.77749 25.0684 5.18298 24.7715 5.48318V5.48318Z" fill="#BABABA"/>
</svg>
