<svg width="28" height="28" viewBox="0 0 28 28" fill="none" xmlns="http://www.w3.org/2000/svg">
    <path d="M26.752 1.24579C25.9143 0.446157 24.8006 0 23.6425 0C22.4844 0 21.3708 0.446157 20.533 1.24579L4.64682 17.1331C4.53961 17.2397 4.45066 17.3632 4.38352 17.4987L0.146677 25.9724C0.0158545 26.2354 -0.0290296 26.5329 0.0183658 26.8228C0.0657611 27.1127 0.20304 27.3803 0.410809 27.588C0.618579 27.7956 0.886336 27.9327 1.17626 27.98C1.46618 28.0272 1.76361 27.9821 2.02653 27.8511L10.5014 23.6154C10.6368 23.5488 10.76 23.4598 10.8658 23.3521L26.7532 7.46481C27.5526 6.6269 27.9986 5.51319 27.9984 4.35506C27.9982 3.19693 27.5518 2.08341 26.752 1.24579V1.24579ZM9.04578 21.209L4.53759 23.4636L6.79226 18.9543L19.4062 6.3392L21.6598 8.59387L9.04578 21.209ZM24.7698 5.48376L23.6431 6.61053L21.3838 4.35702L22.5106 3.23025C22.8142 2.94066 23.2177 2.77913 23.6373 2.77913C24.0569 2.77913 24.4604 2.94066 24.7641 3.23025C25.0626 3.52893 25.2307 3.93359 25.2318 4.35583C25.2328 4.77807 25.0668 5.18356 24.7698 5.48376V5.48376Z" fill="#F67A95"/>
</svg>