<svg width="13" height="13" viewBox="0 0 13 13" fill="none" xmlns="http://www.w3.org/2000/svg">
<path d="M8.96833 12.1701C8.95267 12.6399 8.56102 13 8.1067 13C8.09104 13 8.07537 13 8.07537 13C7.60539 12.9843 7.2294 12.5772 7.24507 12.1075C7.33907 9.88401 6.80642 8.22423 5.6628 7.14381C3.84554 5.43706 0.994324 5.71891 0.962992 5.71891C0.493011 5.76589 0.0700284 5.42141 0.00736424 4.95166C-0.0396338 4.48191 0.289353 4.05914 0.775 3.99651C0.915994 3.98085 4.42518 3.62071 6.83775 5.85984C8.37302 7.3004 9.078 9.42992 8.96833 12.1701ZM2.20061 8.8349C1.66796 8.8349 1.13532 9.05412 0.759334 9.42992C0.383349 9.80572 0.164025 10.3381 0.164025 10.8705C0.164025 11.4029 0.383349 11.9352 0.759334 12.311C1.13532 12.6868 1.66796 12.9061 2.20061 12.9061C2.73325 12.9061 3.2659 12.6868 3.64188 12.311C4.01787 11.9352 4.23719 11.4029 4.23719 10.8705C4.23719 10.3381 4.01787 9.80572 3.64188 9.42992C3.2659 9.05412 2.73325 8.8349 2.20061 8.8349ZM9.8143 2.77516C6.22678 -0.560045 0.994324 0.034968 0.759334 0.0506262C0.289353 0.113259 -0.0552999 0.536032 0.00736424 1.00578C0.0700284 1.47553 0.493011 1.82001 0.962992 1.75738C1.00999 1.75738 5.63147 1.24065 8.63935 4.02782C10.5349 5.78155 11.4122 8.49042 11.2556 12.0918C11.2399 12.5616 11.6002 12.9687 12.0859 12.9843C12.1015 12.9843 12.1172 12.9843 12.1172 12.9843C12.5715 12.9843 12.9632 12.6242 12.9788 12.1545C13.1668 8.05199 12.1015 4.88903 9.8143 2.77516Z" fill="#F67A95"/>
</svg>
