<svg width="26" height="29" viewBox="0 0 26 29" fill="none" xmlns="http://www.w3.org/2000/svg">
<path d="M25.3628 13.1906L13.2823 0.248824C13.1229 0.0895014 12.9068 0 12.6814 0C12.4561 0 12.2399 0.0895014 12.0805 0.248824L0 13.1944V28.1501C0 28.3755 0.0895461 28.5917 0.248938 28.7511C0.40833 28.9105 0.624511 29 0.849925 29H9.10202V19.0493C9.19894 18.1929 9.62858 17.4088 10.2983 16.8663C10.968 16.3237 11.8241 16.0661 12.682 16.149C13.5398 16.0671 14.3954 16.3251 15.0648 16.8675C15.7343 17.4098 16.1642 18.1933 16.2621 19.0493V29H24.5142C24.7396 29 24.9558 28.9105 25.1152 28.7511C25.2745 28.5917 25.3641 28.3755 25.3641 28.1501V13.1906H25.3628Z" fill="#BABABA"/>
</svg>



