<svg width="12" height="13" viewBox="0 0 12 13" fill="none" fill-opacity="0.8" xmlns="http://www.w3.org/2000/svg">
<path d="M11.6399 8.39237C11.8928 8.06968 12.0142 7.72377 11.9987 7.36752C11.9832 6.97514 11.8077 6.66794 11.6631 6.4795C11.8309 6.0613 11.8954 5.40302 11.3352 4.89189C10.9248 4.51758 10.2278 4.34978 9.26232 4.39625C8.5834 4.42723 8.01547 4.55372 7.99224 4.55888H7.98966C7.86058 4.58211 7.72377 4.61051 7.58437 4.64149C7.57404 4.47627 7.60244 4.06582 7.90705 3.14165C8.26846 2.04194 8.2478 1.20038 7.83993 0.637624C7.41141 0.0464665 6.72732 0 6.52596 0C6.33235 0 6.15423 0.0800257 6.02774 0.22717C5.74119 0.56018 5.77475 1.17457 5.81089 1.45853C5.47014 2.37237 4.515 4.61309 3.70699 5.23523C3.69151 5.24555 3.6786 5.25846 3.66569 5.27137C3.4282 5.52177 3.26814 5.79282 3.15972 6.03032C3.00742 5.94771 2.83446 5.90125 2.64859 5.90125H1.07389C0.480154 5.90125 0 6.38398 0 6.97514V11.17C0 11.7638 0.482735 12.2439 1.07389 12.2439H2.64859C2.87834 12.2439 3.0926 12.1716 3.26814 12.0477L3.87479 12.12C3.96772 12.1329 5.61987 12.342 7.31589 12.3085C7.62309 12.3317 7.91221 12.3446 8.18069 12.3446C8.64277 12.3446 9.04548 12.3085 9.38107 12.2362C10.171 12.0684 10.7105 11.7328 10.9842 11.2397C11.1933 10.8628 11.1933 10.4885 11.1597 10.251C11.6734 9.78636 11.7638 9.27265 11.7457 8.91124C11.7354 8.70214 11.6889 8.52402 11.6399 8.39237ZM1.07389 11.5469C0.864793 11.5469 0.696998 11.3765 0.696998 11.17V6.97256C0.696998 6.76346 0.867375 6.59566 1.07389 6.59566H2.64859C2.85769 6.59566 3.02549 6.76604 3.02549 6.97256V11.1674C3.02549 11.3765 2.85511 11.5443 2.64859 11.5443H1.07389V11.5469ZM10.979 8.09033C10.8706 8.20392 10.8499 8.37688 10.9325 8.51112C10.9325 8.5137 11.0384 8.6944 11.0513 8.94222C11.0694 9.28039 10.9067 9.57984 10.566 9.83541C10.4446 9.92834 10.3956 10.0884 10.4472 10.233C10.4472 10.2355 10.5582 10.5763 10.3775 10.899C10.2046 11.2088 9.81992 11.4308 9.23651 11.5547C8.76926 11.6553 8.13422 11.6734 7.35462 11.6115C7.34429 11.6115 7.33138 11.6115 7.31847 11.6115C5.65859 11.6476 3.98063 11.4308 3.96256 11.4282H3.95998L3.69925 11.3972C3.71474 11.3249 3.72248 11.2475 3.72248 11.17V6.97256C3.72248 6.86155 3.70441 6.75313 3.67344 6.65245C3.7199 6.4795 3.84898 6.09486 4.15359 5.76701C5.31267 4.84801 6.44594 1.74766 6.49498 1.61342C6.51564 1.55921 6.5208 1.49984 6.51047 1.44046C6.46659 1.15134 6.48208 0.797675 6.54403 0.691835C6.68085 0.694416 7.05 0.733138 7.27201 1.04033C7.53532 1.40432 7.52499 2.05485 7.24103 2.91706C6.80734 4.23103 6.7712 4.92287 7.11454 5.22748C7.28492 5.37979 7.51209 5.38753 7.6773 5.32816C7.83477 5.29202 7.9845 5.26104 8.12648 5.23781C8.1368 5.23523 8.14971 5.23265 8.16004 5.23006C8.95255 5.0571 10.3724 4.95126 10.8654 5.40044C11.2836 5.7825 10.9867 6.28847 10.9532 6.34268C10.8577 6.48724 10.8861 6.67569 11.0151 6.79185C11.0177 6.79444 11.2888 7.05 11.3017 7.39334C11.312 7.62309 11.2036 7.858 10.979 8.09033Z" fill="#FF848E"/>
</svg>