<svg width="13" height="12" viewBox="0 0 13 12" fill="none" xmlns="http://www.w3.org/2000/svg">
<path d="M6.00022 2.31364L6.46113 3.4097L6.92204 2.31364C7.37492 1.23667 8.40123 0.500261 9.57859 0.500261C11.1255 0.500261 12.327 1.8356 12.4811 3.5773L12.4834 3.60269L12.4873 3.62322C12.4875 3.62401 12.4876 3.62511 12.4878 3.62652C12.4888 3.63325 12.4906 3.64707 12.4926 3.6678C12.4965 3.70925 12.5008 3.7784 12.4999 3.87387C12.4979 4.06456 12.4746 4.36167 12.3823 4.75408L12.3822 4.7541C12.1322 5.81669 11.5428 6.76809 10.7405 7.4982L6.46399 11.3264L2.26119 7.49943L2.26089 7.49916C1.45793 6.76921 0.867909 5.81709 0.617754 4.75384L0.617749 4.75382C0.525409 4.36141 0.50208 4.0643 0.500137 3.87361C0.499165 3.77814 0.50355 3.70899 0.507435 3.66754C0.509378 3.64681 0.511198 3.63299 0.512166 3.62626C0.512369 3.62484 0.512535 3.62374 0.512656 3.62295L0.516607 3.60243L0.518854 3.57704C0.673022 1.83534 1.87455 0.5 3.42141 0.5C4.58571 0.5 5.54172 1.2233 6.00022 2.31364Z" fill="#FF848E"/>
</svg>
