<svg width="20" height="17" viewBox="0 0 20 17" fill="none" xmlns="http://www.w3.org/2000/svg">
<g clip-path="url(#clip0_0_68)">
<path d="M9.706 3.529C10.8761 3.52926 11.9981 3.99418 12.8255 4.82154C13.6528 5.64889 14.1177 6.77095 14.118 7.941C14.1174 8.49483 14.0094 9.0433 13.8 9.556L16.376 12.132C17.7197 11.0109 18.7597 9.56963 19.4 7.941C18.634 5.99191 17.2992 4.3184 15.5692 3.13812C13.8393 1.95783 11.7942 1.32538 9.7 1.323C8.50226 1.32273 7.3137 1.53188 6.188 1.941L8.091 3.847C8.6037 3.63756 9.15217 3.52956 9.706 3.529ZM0.882 1.121L2.894 3.132L3.3 3.538C1.82561 4.68248 0.685871 6.20214 0 7.938C0.502317 9.21703 1.25243 10.3842 2.20722 11.3724C3.16202 12.3607 4.30269 13.1505 5.56368 13.6965C6.82467 14.2425 8.18113 14.534 9.55512 14.5542C10.9291 14.5743 12.2935 14.3228 13.57 13.814L13.941 14.185L16.526 16.761L17.647 15.64L2 0L0.882 1.121ZM5.762 6L7.13 7.368C7.08411 7.55592 7.06028 7.74856 7.059 7.942C7.05847 8.28976 7.12658 8.6342 7.25942 8.95559C7.39226 9.27697 7.58721 9.56898 7.83311 9.81489C8.07902 10.0608 8.37103 10.2557 8.69241 10.3886C9.0138 10.5214 9.35824 10.5895 9.706 10.589C9.89944 10.5877 10.0921 10.5639 10.28 10.518L11.648 11.886C10.8245 12.3007 9.89112 12.4452 8.98076 12.2988C8.0704 12.1524 7.22939 11.7226 6.5774 11.0706C5.9254 10.4186 5.49564 9.5776 5.34924 8.66724C5.20285 7.75688 5.34728 6.82353 5.762 6ZM9.562 5.312L12.341 8.091L12.359 7.95C12.3599 7.60216 12.2922 7.25756 12.1596 6.93596C12.0271 6.61435 11.8324 6.32208 11.5867 6.07588C11.3409 5.82969 11.049 5.63442 10.7277 5.50128C10.4063 5.36814 10.0618 5.29974 9.714 5.3L9.562 5.312Z" fill="#CDCCCD"/>
</g>
<defs>
<clipPath id="clip0_0_68">
<rect width="19.402" height="16.764" fill="white"/>
</clipPath>
</defs>
</svg>