<svg width="29" height="29" viewBox="0 0 29 29" fill="none" xmlns="http://www.w3.org/2000/svg">
<path d="M28.5476 12.686C28.3141 12.541 26.4857 11.4434 25.7578 11.1114L24.8573 8.93635C25.1256 8.21135 25.636 6.2002 25.7158 5.85075C25.7521 5.69118 25.7473 5.525 25.7019 5.36777C25.6565 5.21054 25.572 5.0674 25.4562 4.95175L24.0483 3.5438C23.9326 3.42801 23.7895 3.34346 23.6322 3.29807C23.475 3.25267 23.3088 3.24792 23.1493 3.28425C22.8839 3.34515 20.8148 3.86425 20.0637 4.14265L17.8887 3.2422C17.5711 2.5462 16.5068 0.76125 16.314 0.4524C16.227 0.314037 16.1063 0.199973 15.9633 0.12086C15.8203 0.0417479 15.6596 0.000166893 15.4962 1.10992e-07H13.5039C13.3402 -7.82964e-05 13.1791 0.041386 13.0359 0.12051C12.8926 0.199634 12.7717 0.313829 12.6846 0.4524C12.5396 0.68585 11.442 2.5143 11.1099 3.2422L8.9349 4.14265C8.2099 3.8744 6.19875 3.364 5.8493 3.28425C5.68973 3.24792 5.52355 3.25267 5.36632 3.29807C5.20909 3.34346 5.06595 3.42801 4.9503 3.5438L3.54235 4.95175C3.42656 5.0674 3.34201 5.21054 3.29662 5.36777C3.25122 5.525 3.24647 5.69118 3.2828 5.85075C3.3437 6.1161 3.8628 8.18525 4.1412 8.93635L3.24075 11.1114C2.54475 11.4289 0.759801 12.4932 0.450951 12.686C0.312649 12.7733 0.19874 12.8943 0.119876 13.0375C0.0410121 13.1808 -0.000231721 13.3418 9.79247e-07 13.5053V15.4976C-7.74282e-05 15.6613 0.0413869 15.8223 0.120511 15.9656C0.199635 16.1089 0.31383 16.2297 0.452401 16.3169C0.685851 16.4619 2.5143 17.5595 3.2422 17.8916L4.14265 20.0666C3.8744 20.7915 3.364 22.8027 3.28425 23.1522C3.24792 23.3117 3.25267 23.4779 3.29807 23.6351C3.34346 23.7924 3.42801 23.9355 3.5438 24.0512L4.95175 25.4591C5.0674 25.5749 5.21054 25.6594 5.36777 25.7048C5.525 25.7502 5.69118 25.755 5.85075 25.7187C6.1161 25.6578 8.18525 25.1387 8.93635 24.8603L11.1114 25.7607C11.4289 26.4567 12.4932 28.2417 12.6861 28.5505C12.7734 28.6883 12.8942 28.8018 13.0372 28.8804C13.1801 28.959 13.3407 29.0001 13.5039 29H15.4962C15.6598 29.0001 15.8209 28.9586 15.9641 28.8795C16.1074 28.8004 16.2283 28.6862 16.3154 28.5476C16.4604 28.3141 17.5581 26.4857 17.8901 25.7578L20.0651 24.8573C20.7901 25.1256 22.8013 25.636 23.1507 25.7158C23.3103 25.7522 23.4765 25.7475 23.6337 25.7021C23.791 25.6567 23.9341 25.5721 24.0497 25.4562L25.4576 24.0483C25.5734 23.9326 25.658 23.7895 25.7034 23.6322C25.7488 23.475 25.7535 23.3088 25.7172 23.1493C25.6563 22.8839 25.1372 20.8148 24.8588 20.0637L25.7593 17.8887C26.4552 17.5711 28.2402 16.5068 28.549 16.314C28.6869 16.2269 28.8006 16.1064 28.8794 15.9637C28.9583 15.821 28.9997 15.6607 29 15.4976V13.5053C29.0001 13.3416 28.9586 13.1806 28.8795 13.0373C28.8004 12.894 28.6862 12.7732 28.5476 12.686ZM14.5 20.8235C13.2497 20.8235 12.0275 20.4527 10.9878 19.7581C9.94822 19.0635 9.13791 18.0762 8.65937 16.9211C8.18083 15.766 8.05555 14.4949 8.29937 13.2686C8.54319 12.0423 9.14516 10.9158 10.0292 10.0316C10.9132 9.14743 12.0395 8.5452 13.2658 8.3011C14.492 8.057 15.7631 8.18199 16.9183 8.66027C18.0735 9.13854 19.061 9.94862 19.7558 10.9881C20.4507 12.0275 20.8217 13.2497 20.822 14.5C20.8205 16.1764 20.154 17.7836 18.9687 18.9691C17.7835 20.1546 16.1764 20.8215 14.5 20.8235Z" fill="#BABABA"/>
</svg>
