<svg width="38" height="38" viewBox="0 0 38 38" fill="none" xmlns="http://www.w3.org/2000/svg">
<circle cx="19" cy="19" r="19" fill="white"/>
<path d="M19 1.27734C9.21309 1.27734 1.27734 9.21153 1.27734 18.9993C1.27734 28.787 9.21231 36.7212 19 36.7212C28.7885 36.7212 36.7227 28.787 36.7227 18.9993C36.7227 9.21153 28.7885 1.27734 19 1.27734ZM19 6.5764C22.2385 6.5764 24.8627 9.20141 24.8627 12.4383C24.8627 15.676 22.2385 18.3002 19 18.3002C15.7631 18.3002 13.1389 15.676 13.1389 12.4383C13.1389 9.20141 15.7631 6.5764 19 6.5764ZM18.9961 32.0877C15.7663 32.0877 12.8081 30.9114 10.5264 28.9645C9.97054 28.4904 9.64981 27.7952 9.64981 27.0658C9.64981 23.783 12.3067 21.1556 15.5903 21.1556H22.4113C25.6957 21.1556 28.3425 23.783 28.3425 27.0658C28.3425 27.796 28.0233 28.4896 27.4667 28.9637C25.1858 30.9114 22.2268 32.0877 18.9961 32.0877Z" fill="#E8E8E8"/>
</svg>
