<svg width="13" height="12" viewBox="0 0 13 12" fill="none" xmlns="http://www.w3.org/2000/svg">
<path d="M6.5 0C10.0841 0 13 2.31809 13 5.16742C13 6.84643 11.9947 8.39582 10.2938 9.36576C10.5297 10.4366 11.0586 11.188 11.0644 11.1961L11.6426 12L10.6398 11.8752C10.5243 11.8608 7.8339 11.5147 5.91633 10.3141C4.34161 10.2028 2.87906 9.6421 1.78635 8.72848C0.634412 7.76526 0 6.50062 0 5.16748C0 2.31809 2.9159 0 6.5 0ZM6.08922 9.45401L6.21154 9.46079L6.31326 9.52714C7.42837 10.2542 8.92118 10.6576 9.86029 10.8548C9.66329 10.4274 9.45625 9.85911 9.35292 9.20305L9.30462 8.89641L9.58765 8.75241C11.1636 7.9508 12.1045 6.61071 12.1045 5.16742C12.1045 2.79741 9.59034 0.869175 6.5 0.869175C3.40966 0.869175 0.895473 2.79735 0.895473 5.16742C0.895473 7.40884 3.17684 9.29171 6.08922 9.45401Z" fill="black"/>
</svg>
