<svg width="26" height="26" viewBox="0 0 26 26" fill="none" xmlns="http://www.w3.org/2000/svg">
<g clip-path="url(#clip0_0_322)">
<path fill-rule="evenodd" clip-rule="evenodd" d="M19 11.5C19 15.6421 15.6421 19 11.5 19C7.35786 19 4 15.6421 4 11.5C4 7.35786 7.35786 4 11.5 4C15.6421 4 19 7.35786 19 11.5ZM17.7883 19.9096C16.0354 21.2224 13.8585 22 11.5 22C5.70101 22 1 17.299 1 11.5C1 5.70101 5.70101 1 11.5 1C17.299 1 22 5.70101 22 11.5C22 13.8585 21.2224 16.0354 19.9096 17.7883L29.0607 26.9393C29.6464 27.5251 29.6464 28.4749 29.0607 29.0607C28.4749 29.6464 27.5251 29.6464 26.9393 29.0607L17.7883 19.9096Z" fill="#FF848E"/>
</g>
<defs>
<clipPath id="clip0_0_322">
<rect width="26" height="26" fill="gray"/>
</clipPath>
</defs>
</svg>
