<svg width="37" height="37" viewBox="0 0 37 37" fill="none" xmlns="http://www.w3.org/2000/svg">
<g clip-path="url(#clip0_5_69)">
<path d="M31.3173 17.873C31.3146 17.7208 31.2684 17.5726 31.1843 17.4458C31.1002 17.319 30.9816 17.2188 30.8425 17.157L13.7643 9.51463C13.6154 9.45043 13.4505 9.43305 13.2914 9.46482C13.1324 9.49658 12.9867 9.57598 12.8739 9.69247C12.761 9.80896 12.6863 9.95702 12.6596 10.117C12.6329 10.277 12.6555 10.4413 12.7244 10.5881L15.748 17.3342L22.9244 17.2091L22.9497 18.8027L15.7505 18.9169L12.9481 25.761C12.8871 25.9091 12.872 26.072 12.9048 26.2287C12.9375 26.3854 13.0165 26.5286 13.1316 26.6399C13.2499 26.7499 13.3987 26.8215 13.5586 26.8452C13.7184 26.8689 13.8816 26.8436 14.0267 26.7727L30.854 18.5925C30.9915 18.5289 31.108 18.4274 31.1901 18.3C31.2721 18.1726 31.3163 18.0245 31.3173 17.873Z" fill="#FF848E"/>
</g>
<defs>
<clipPath id="clip0_5_69">
<rect width="25.5763" height="25.5763" fill="white" transform="translate(17.7961) rotate(44.0914)"/>
</clipPath>
</defs>
</svg>