<svg width="4" height="13" viewBox="0 0 4 13" fill="none" xmlns="http://www.w3.org/2000/svg">
<path d="M0.0257966 1.57249C0.040075 2.41239 0.732526 3.08169 1.57243 3.06741C2.41233 3.05314 3.08164 2.36068 3.06736 1.52078C3.05308 0.680877 2.36063 0.0115749 1.52072 0.0258533C0.68082 0.0401316 0.0115183 0.732583 0.0257966 1.57249Z" fill="#FF848E"/>
<path d="M0.10856 6.4405C0.122839 7.2804 0.81529 7.9497 1.65519 7.93543C2.4951 7.92115 3.1644 7.2287 3.15012 6.38879C3.13584 5.54889 2.44339 4.87959 1.60349 4.89386C0.763584 4.90814 0.0942819 5.60059 0.10856 6.4405Z" fill="#FF848E"/>
<path d="M0.191324 11.3095C0.205602 12.1494 0.898054 12.8187 1.73796 12.8044C2.57786 12.7901 3.24716 12.0977 3.23288 11.2578C3.21861 10.4179 2.52615 9.74857 1.68625 9.76285C0.846347 9.77713 0.177046 10.4696 0.191324 11.3095Z" fill="#FF848E"/>
</svg>