<svg width="100%" height="203" viewBox="0 0 100% 203" fill="none" xmlns="http://www.w3.org/2000/svg">
<path d="M3.05176e-05 0H428V66.9338C405.845 89.8965 337.789 87.2094 283.991 87.2094C239.913 87.2094 190.881 91.6179 148.541 142.906C107.752 192.316 38.2682 197.789 3.05176e-05 203V0Z" fill="url(#paint0_linear_0_74)"/>
<defs>
<linearGradient id="paint0_linear_0_74" x1="389.911" y1="9.71292" x2="261.354" y2="297.156" gradientUnits="userSpaceOnUse">
<stop stop-color="#FFBCD1"/>
<stop offset="1" stop-color="#FDEBF7"/>
</linearGradient>
</defs>
<svg width="100%" height="213" viewBox="0 0 100% 203" fill="none" xmlns="http://www.w3.org/2000/svg">
<path d="M-3.05176e-05 0H428V66.9338C405.845 89.8965 337.888 88.3773 316.74 90.0873C295.592 91.7973 244.959 90.1238 160.876 145.208C89.7096 191.83 38.2682 197.789 -3.05176e-05 203V0Z" fill="url(#paint0_linear_0_73)" fill-opacity="0.5"/>
<defs>
<linearGradient id="paint0_linear_0_73" x1="389.911" y1="9.71292" x2="261.354" y2="297.156" gradientUnits="userSpaceOnUse">
<stop stop-color="#FFBCD1"/>
<stop offset="1" stop-color="#FDEBF7"/>
</linearGradient>
</defs>
</svg>
</svg>
