<svg width="428" height="172" viewBox="0 0 428 172" fill="none" xmlns="http://www.w3.org/2000/svg">
<path d="M3.05176e-05 172H428V115.288C405.845 95.8315 337.789 98.1083 283.991 98.1083C239.913 98.1083 190.881 94.373 148.541 50.917C107.752 9.05263 38.2682 4.41556 3.05176e-05 0V172Z" fill="url(#paint0_linear_0_59)"/>
<defs>
<linearGradient id="paint0_linear_0_59" x1="389.911" y1="163.77" x2="293.066" y2="-91.7949" gradientUnits="userSpaceOnUse">
<stop stop-color="#FFBCD1"/>
<stop offset="1" stop-color="#FDEBF7"/>
</linearGradient>
</defs>
<svg width="428" height="160" viewBox="0 0 428 179" fill="none" xmlns="http://www.w3.org/2000/svg">
<path d="M3.05176e-05 179H428V119.98C405.845 99.7317 337.888 101.071 316.74 99.5634C295.592 98.0556 244.959 99.5312 160.876 50.9593C89.7096 9.84929 38.2682 4.59528 3.05176e-05 0V179Z" fill="url(#paint0_linear_0_58)" fill-opacity="0.5"/>
<defs>
<linearGradient id="paint0_linear_0_58" x1="389.911" y1="170.435" x2="286.106" y2="-92.7857" gradientUnits="userSpaceOnUse">
<stop stop-color="#FFBCD1"/>
<stop offset="1" stop-color="#FDEBF7"/>
</linearGradient>
</defs>
</svg>
</svg>
